<mxfile host="65bd71144e">
    <diagram id="enqtDQR1FkPNS5pf97KV" name="Memoria en Java">
        <mxGraphModel dx="914" dy="381" grid="1" gridSize="10" guides="1" tooltips="1" connect="1" arrows="1" fold="1" page="1" pageScale="1" pageWidth="850" pageHeight="1100" math="0" shadow="0">
            <root>
                <mxCell id="0"/>
                <mxCell id="1" parent="0"/>
                <mxCell id="2" value="" style="rounded=0;whiteSpace=wrap;html=1;" vertex="1" parent="1">
                    <mxGeometry x="105" y="300" width="140" height="210" as="geometry"/>
                </mxCell>
                <mxCell id="3" value="Variables Locales&lt;br style=&quot;font-size: 14px;&quot;&gt;" style="text;html=1;strokeColor=none;fillColor=none;align=center;verticalAlign=middle;whiteSpace=wrap;rounded=0;fontSize=14;fontStyle=1;fontColor=#FFFF33;" vertex="1" parent="1">
                    <mxGeometry x="115" y="270" width="130" height="20" as="geometry"/>
                </mxCell>
                <mxCell id="5" value="&lt;h1&gt;Memoria Stack&lt;/h1&gt;&lt;p&gt;Destinada para las variables locales&lt;/p&gt;" style="text;html=1;strokeColor=none;fillColor=none;spacing=5;spacingTop=-20;whiteSpace=wrap;overflow=hidden;rounded=0;align=center;" vertex="1" parent="1">
                    <mxGeometry x="80" y="520" width="190" height="80" as="geometry"/>
                </mxCell>
                <mxCell id="6" value="" style="rounded=0;whiteSpace=wrap;html=1;" vertex="1" parent="1">
                    <mxGeometry x="585" y="300" width="130" height="210" as="geometry"/>
                </mxCell>
                <mxCell id="7" value="Variables Object" style="text;html=1;strokeColor=none;fillColor=none;align=center;verticalAlign=middle;whiteSpace=wrap;rounded=0;fontSize=14;fontStyle=1;fontColor=#FFFF33;" vertex="1" parent="1">
                    <mxGeometry x="590" y="270" width="130" height="20" as="geometry"/>
                </mxCell>
                <mxCell id="8" value="&lt;h1&gt;Memoria Heap&lt;/h1&gt;&lt;p&gt;Destinada para las variables locales&lt;/p&gt;" style="text;html=1;strokeColor=none;fillColor=none;spacing=5;spacingTop=-20;whiteSpace=wrap;overflow=hidden;rounded=0;align=center;" vertex="1" parent="1">
                    <mxGeometry x="555" y="520" width="190" height="80" as="geometry"/>
                </mxCell>
                <mxCell id="9" value="" style="shape=process;whiteSpace=wrap;html=1;backgroundOutline=1;fontSize=13;fontColor=#FFFF33;size=0;" vertex="1" parent="1">
                    <mxGeometry x="125" y="340" width="100" height="40" as="geometry"/>
                </mxCell>
                <mxCell id="10" value="person_1" style="text;html=1;strokeColor=none;fillColor=none;align=left;verticalAlign=middle;whiteSpace=wrap;rounded=0;fontSize=12;fontColor=#FFFF33;" vertex="1" parent="1">
                    <mxGeometry x="115" y="320" width="40" height="20" as="geometry"/>
                </mxCell>
                <mxCell id="11" value="&lt;font color=&quot;#ffffff&quot; style=&quot;font-size: 22px&quot;&gt;10&lt;/font&gt;" style="shape=process;whiteSpace=wrap;html=1;backgroundOutline=1;fontSize=13;fontColor=#FFFF33;size=0;" vertex="1" parent="1">
                    <mxGeometry x="125" y="410" width="100" height="40" as="geometry"/>
                </mxCell>
                <mxCell id="12" value="x" style="text;html=1;strokeColor=none;fillColor=none;align=left;verticalAlign=middle;whiteSpace=wrap;rounded=0;fontSize=12;fontColor=#FFFF33;" vertex="1" parent="1">
                    <mxGeometry x="115" y="390" width="40" height="20" as="geometry"/>
                </mxCell>
                <mxCell id="13" value="&lt;p style=&quot;margin: 0px ; margin-top: 4px ; text-align: center ; text-decoration: underline&quot;&gt;&lt;b&gt;Object:Person&lt;/b&gt;&lt;/p&gt;&lt;hr&gt;&lt;p style=&quot;margin: 0px ; margin-left: 8px&quot;&gt;&lt;font color=&quot;#ffffff&quot;&gt;name = &quot;Juan&quot;&lt;br&gt;age = &quot;43&quot;&lt;br&gt;salary = 9000&lt;/font&gt;&lt;/p&gt;" style="verticalAlign=top;align=left;overflow=fill;fontSize=12;fontFamily=Helvetica;html=1;fontColor=#FFFF33;" vertex="1" parent="1">
                    <mxGeometry x="598.75" y="340" width="102.5" height="90" as="geometry"/>
                </mxCell>
                <mxCell id="15" value="" style="html=1;verticalAlign=bottom;startArrow=oval;startFill=1;endArrow=block;startSize=8;fontSize=14;fontColor=#FFFF33;" edge="1" parent="1" target="13">
                    <mxGeometry x="0.3333" width="60" relative="1" as="geometry">
                        <mxPoint x="205" y="360" as="sourcePoint"/>
                        <mxPoint x="225" y="359.76" as="targetPoint"/>
                        <mxPoint as="offset"/>
                    </mxGeometry>
                </mxCell>
                <mxCell id="19" value="&lt;font color=&quot;#6666ff&quot;&gt;0x333&lt;/font&gt;" style="text;html=1;strokeColor=none;fillColor=none;align=center;verticalAlign=middle;whiteSpace=wrap;rounded=0;fontSize=14;fontColor=#FFFF33;" vertex="1" parent="1">
                    <mxGeometry x="145" y="350" width="40" height="20" as="geometry"/>
                </mxCell>
                <mxCell id="20" value="&lt;font color=&quot;#6666ff&quot;&gt;0x333&lt;/font&gt;" style="text;html=1;strokeColor=none;fillColor=none;align=center;verticalAlign=middle;whiteSpace=wrap;rounded=0;fontSize=14;fontColor=#FFFF33;" vertex="1" parent="1">
                    <mxGeometry x="598.75" y="320" width="40" height="20" as="geometry"/>
                </mxCell>
                <mxCell id="22" value="&lt;font style=&quot;font-size: 20px;&quot; color=&quot;#ff33ff&quot;&gt;Person &lt;/font&gt;&lt;font style=&quot;font-size: 20px;&quot; color=&quot;#ffffff&quot;&gt;person_1&lt;/font&gt;&lt;font style=&quot;font-size: 20px;&quot; color=&quot;#ff33ff&quot;&gt; = &lt;/font&gt;&lt;font style=&quot;font-size: 20px;&quot; color=&quot;#66ff66&quot;&gt;new&lt;/font&gt;&lt;font style=&quot;font-size: 20px;&quot; color=&quot;#ff33ff&quot;&gt; Person();&lt;/font&gt;" style="text;html=1;strokeColor=none;fillColor=none;align=left;verticalAlign=middle;whiteSpace=wrap;rounded=0;fontSize=20;fontColor=#FFFF33;" vertex="1" parent="1">
                    <mxGeometry x="198" y="190" width="455" height="20" as="geometry"/>
                </mxCell>
                <mxCell id="23" value="&lt;div style=&quot;font-size: 20px;&quot;&gt;&lt;font color=&quot;#ff33ff&quot; style=&quot;font-size: 20px;&quot;&gt;int&amp;nbsp;&lt;/font&gt;&lt;font color=&quot;#ffffff&quot; style=&quot;font-size: 20px;&quot;&gt;x&lt;/font&gt;&lt;font color=&quot;#ff33ff&quot; style=&quot;font-size: 20px;&quot;&gt; = &lt;/font&gt;&lt;font color=&quot;#66ff66&quot; style=&quot;font-size: 20px;&quot;&gt;10&lt;/font&gt;&lt;font color=&quot;#ff33ff&quot; style=&quot;font-size: 20px;&quot;&gt;;&lt;/font&gt;&lt;/div&gt;" style="text;html=1;strokeColor=none;fillColor=none;align=left;verticalAlign=middle;whiteSpace=wrap;rounded=0;fontSize=20;fontColor=#FFFF33;" vertex="1" parent="1">
                    <mxGeometry x="198" y="210" width="455" height="20" as="geometry"/>
                </mxCell>
                <mxCell id="25" value="Tipos de Memoria en Java" style="text;html=1;strokeColor=none;fillColor=none;align=center;verticalAlign=middle;whiteSpace=wrap;rounded=0;fontSize=38;fontColor=#FFFFFF;fontStyle=1" vertex="1" parent="1">
                    <mxGeometry x="185" y="130" width="480" height="20" as="geometry"/>
                </mxCell>
            </root>
        </mxGraphModel>
    </diagram>
</mxfile>